<svg width="60" height="16" viewBox="0 0 60 16" fill="none" xmlns="http://www.w3.org/2000/svg">
<path d="M0.434935 7.7041C0.434935 10.6924 2.85742 13.1149 5.8457 13.1149C8.83399 13.1149 11.2565 10.6924 11.2565 7.7041C11.2565 4.71582 8.83399 2.29333 5.8457 2.29333C2.85742 2.29333 0.434935 4.71582 0.434935 7.7041ZM59.3181 8.42147C59.7143 8.02528 59.7143 7.38292 59.3181 6.98673L52.8617 0.530368C52.4655 0.134174 51.8232 0.134174 51.427 0.530368C51.0308 0.926563 51.0308 1.56892 51.427 1.96512L57.1659 7.7041L51.427 13.4431C51.0308 13.8393 51.0308 14.4816 51.427 14.8778C51.8232 15.274 52.4655 15.274 52.8617 14.8778L59.3181 8.42147ZM5.8457 7.7041V8.71862H58.6007V7.7041V6.68958H5.8457V7.7041Z" fill="#039654"/>
</svg>
