<svg width="24" height="24" viewBox="0 0 24 24" fill="none" xmlns="http://www.w3.org/2000/svg">
<path d="M7.38078 0.719727H3.62078C2.87287 0.719727 2.15559 1.01683 1.62674 1.54569C1.09789 2.07454 0.800781 2.79182 0.800781 3.53973V20.4597C0.800781 21.2076 1.09789 21.9249 1.62674 22.4538C2.15559 22.9826 2.87287 23.2797 3.62078 23.2797H7.38078C8.12869 23.2797 8.84597 22.9826 9.37482 22.4538C9.90368 21.9249 10.2008 21.2076 10.2008 20.4597V3.53973C10.2008 2.79182 9.90368 2.07454 9.37482 1.54569C8.84597 1.01683 8.12869 0.719727 7.38078 0.719727ZM8.32078 20.4597C8.32078 20.709 8.22175 20.9481 8.04546 21.1244C7.86918 21.3007 7.63009 21.3997 7.38078 21.3997H3.62078C3.37148 21.3997 3.13239 21.3007 2.9561 21.1244C2.77982 20.9481 2.68078 20.709 2.68078 20.4597V3.53973C2.68078 3.29042 2.77982 3.05133 2.9561 2.87505C3.13239 2.69876 3.37148 2.59973 3.62078 2.59973H7.38078C7.63009 2.59973 7.86918 2.69876 8.04546 2.87505C8.22175 3.05133 8.32078 3.29042 8.32078 3.53973V20.4597ZM20.5408 15.4777H14.9008C14.1529 15.4777 13.4356 15.7748 12.9067 16.3037C12.3779 16.8325 12.0808 17.5498 12.0808 18.2977V20.4597C12.0808 21.2076 12.3779 21.9249 12.9067 22.4538C13.4356 22.9826 14.1529 23.2797 14.9008 23.2797H20.5408C21.2887 23.2797 22.006 22.9826 22.5348 22.4538C23.0637 21.9249 23.3608 21.2076 23.3608 20.4597V18.2977C23.3608 17.5498 23.0637 16.8325 22.5348 16.3037C22.006 15.7748 21.2887 15.4777 20.5408 15.4777ZM21.4808 20.4597C21.4808 20.709 21.3817 20.9481 21.2055 21.1244C21.0292 21.3007 20.7901 21.3997 20.5408 21.3997H14.9008C14.6515 21.3997 14.4124 21.3007 14.2361 21.1244C14.0598 20.9481 13.9608 20.709 13.9608 20.4597V18.2977C13.9608 18.0484 14.0598 17.8093 14.2361 17.633C14.4124 17.4568 14.6515 17.3577 14.9008 17.3577H20.5408C20.7901 17.3577 21.0292 17.4568 21.2055 17.633C21.3817 17.8093 21.4808 18.0484 21.4808 18.2977V20.4597ZM20.5408 0.719727H14.9008C14.1529 0.719727 13.4356 1.01683 12.9067 1.54569C12.3779 2.07454 12.0808 2.79182 12.0808 3.53973V10.7777C12.0808 11.5256 12.3779 12.2429 12.9067 12.7718C13.4356 13.3006 14.1529 13.5977 14.9008 13.5977H20.5408C21.2887 13.5977 22.006 13.3006 22.5348 12.7718C23.0637 12.2429 23.3608 11.5256 23.3608 10.7777V3.53973C23.3608 2.79182 23.0637 2.07454 22.5348 1.54569C22.006 1.01683 21.2887 0.719727 20.5408 0.719727ZM21.4808 10.7777C21.4808 11.027 21.3817 11.2661 21.2055 11.4424C21.0292 11.6187 20.7901 11.7177 20.5408 11.7177H14.9008C14.6515 11.7177 14.4124 11.6187 14.2361 11.4424C14.0598 11.2661 13.9608 11.027 13.9608 10.7777V3.53973C13.9608 3.29042 14.0598 3.05133 14.2361 2.87505C14.4124 2.69876 14.6515 2.59973 14.9008 2.59973H20.5408C20.7901 2.59973 21.0292 2.69876 21.2055 2.87505C21.3817 3.05133 21.4808 3.29042 21.4808 3.53973V10.7777Z" fill="white"/>
</svg>
