<svg width="36" height="36" viewBox="0 0 36 36" fill="none" xmlns="http://www.w3.org/2000/svg">
<path d="M10 18H10.0178M18 18H18.0178M26 18H26.0178M18 34C26.8366 34 34 26.8366 34 18C34 9.16344 26.8366 2 18 2C9.16344 2 2 9.16344 2 18C2 20.1283 2.41553 22.1595 3.16989 24.0169C3.31426 24.3724 3.38645 24.5501 3.41866 24.6938C3.45016 24.8344 3.46168 24.9384 3.4617 25.0824C3.46172 25.2297 3.43499 25.3901 3.38153 25.7108L2.32734 32.036C2.21694 32.6983 2.16175 33.0295 2.26446 33.269C2.35436 33.4786 2.52139 33.6456 2.73099 33.7355C2.97048 33.8383 3.30166 33.7831 3.96402 33.6727L10.2892 32.6185C10.6099 32.565 10.7703 32.5383 10.9176 32.5383C11.0616 32.5383 11.1656 32.5498 11.3062 32.5813C11.4499 32.6135 11.6276 32.6857 11.9831 32.8301C13.8405 33.5845 15.8717 34 18 34ZM10.8889 18C10.8889 18.4909 10.4909 18.8889 10 18.8889C9.50908 18.8889 9.11111 18.4909 9.11111 18C9.11111 17.5091 9.50908 17.1111 10 17.1111C10.4909 17.1111 10.8889 17.5091 10.8889 18ZM18.8889 18C18.8889 18.4909 18.4909 18.8889 18 18.8889C17.5091 18.8889 17.1111 18.4909 17.1111 18C17.1111 17.5091 17.5091 17.1111 18 17.1111C18.4909 17.1111 18.8889 17.5091 18.8889 18ZM26.8889 18C26.8889 18.4909 26.4909 18.8889 26 18.8889C25.5091 18.8889 25.1111 18.4909 25.1111 18C25.1111 17.5091 25.5091 17.1111 26 17.1111C26.4909 17.1111 26.8889 17.5091 26.8889 18Z" stroke="white" stroke-width="2.22667" stroke-linecap="round" stroke-linejoin="round"/>
</svg>
