<svg width="46" height="45" viewBox="0 0 46 45" fill="none" xmlns="http://www.w3.org/2000/svg">
<rect x="3.03831" y="2.57005" width="39.8415" height="39.8415" rx="19.9207" fill="#F9FAFB"/>
<rect x="3.03831" y="2.57005" width="39.8415" height="39.8415" rx="19.9207" stroke="#F2F4F7" stroke-width="5.10788"/>
<path d="M26.0242 30.6636C30.5378 30.6636 34.1968 27.0046 34.1968 22.491C34.1968 17.9774 30.5378 14.3184 26.0242 14.3184C21.5106 14.3184 17.8516 17.9774 17.8516 22.491C17.8516 27.0046 21.5106 30.6636 26.0242 30.6636Z" fill="#D0D5DD"/>
<path d="M23.981 17.6382C23.5581 17.6382 23.2148 17.9814 23.2148 18.4044V21.9441C23.2148 22.5428 23.5131 23.0995 24.0107 23.4315L26.6208 25.1713C26.7515 25.2581 26.8986 25.3 27.0458 25.3C27.293 25.3 27.5361 25.1805 27.6842 24.9588C27.9192 24.6064 27.8242 24.1303 27.4717 23.8964L24.8616 22.1566C24.7901 22.1096 24.7482 22.0299 24.7482 21.9441V18.4044C24.7482 17.9814 24.405 17.6382 23.982 17.6382H23.981Z" fill="#054F31"/>
<path d="M23.9806 13.5522C19.6726 13.5522 16.0052 16.6303 15.2084 20.7993L14.3043 19.9034C14.0049 19.6051 13.5187 19.6071 13.2204 19.9085C12.9221 20.2099 12.9241 20.6941 13.2255 20.9924L15.288 23.0355C15.4321 23.1775 15.6252 23.2572 15.8274 23.2572H15.8305C16.0338 23.2572 16.2279 23.1745 16.3709 23.0304L18.3947 20.9873C18.693 20.6869 18.6909 20.2017 18.3895 19.9034C18.0902 19.6051 17.604 19.6071 17.3057 19.9085L16.896 20.3212C17.8287 17.2636 20.6789 15.0836 23.9786 15.0836C28.0628 15.0836 31.385 18.4058 31.385 22.49C31.385 26.5743 28.0628 29.8964 23.9786 29.8964C21.7158 29.8964 19.6103 28.8851 18.2026 27.1198C17.938 26.7898 17.4579 26.7357 17.1259 26.9992C16.7949 27.2628 16.7407 27.745 17.0043 28.076C18.7052 30.207 21.2469 31.4288 23.9786 31.4288C28.9077 31.4288 32.9174 27.4191 32.9174 22.49C32.9174 17.5609 28.9097 13.5522 23.9806 13.5522Z" fill="#054F31"/>
</svg>
