<svg width="18" height="18" viewBox="0 0 18 18" fill="none" xmlns="http://www.w3.org/2000/svg">
<path d="M15.8753 9.23252L9.18324 2.54043C9.04235 2.39954 8.90146 2.3291 8.69013 2.3291H4.74533C4.39311 2.3291 4.04089 2.46999 3.75912 2.75176L2.4207 4.09018C2.13893 4.37195 1.99805 4.72416 1.99805 5.07638V8.73942C1.99805 9.09163 2.13893 9.44385 2.4207 9.72562L8.90146 16.2064C9.18324 16.4882 9.60589 16.4882 9.88767 16.2064L15.8753 10.2187C16.1571 9.93695 16.1571 9.51429 15.8753 9.23252ZM5.5202 6.55568C5.09754 6.55568 4.81577 6.27391 4.81577 5.85125C4.81577 5.42859 5.09754 5.14682 5.5202 5.14682C5.94286 5.14682 6.22463 5.42859 6.22463 5.85125C6.22463 6.27391 5.94286 6.55568 5.5202 6.55568Z" fill="#32D583"/>
</svg>
