<svg width="52" height="52" viewBox="0 0 52 52" fill="none" xmlns="http://www.w3.org/2000/svg">
<rect x="3.26415" y="3.57909" width="45.1922" height="45.1922" rx="22.5961" fill="#F9FAFB"/>
<rect x="3.26415" y="3.57909" width="45.1922" height="45.1922" rx="22.5961" stroke="#EAECF0" stroke-width="6.45603"/>
<g clip-path="url(#clip0_1641_68536)">
<path d="M30.1635 35.8593V33.7073C30.1635 32.5658 29.7101 31.4711 28.9029 30.6639C28.0957 29.8567 27.001 29.4033 25.8595 29.4033H18.3275C17.186 29.4033 16.0912 29.8567 15.2841 30.6639C14.4769 31.4711 14.0234 32.5658 14.0234 33.7073V35.8593M31.2395 25.0993L33.3915 27.2513L37.6956 22.9472M26.3975 20.7952C26.3975 23.1723 24.4705 25.0993 22.0935 25.0993C19.7164 25.0993 17.7895 23.1723 17.7895 20.7952C17.7895 18.4182 19.7164 16.4912 22.0935 16.4912C24.4705 16.4912 26.3975 18.4182 26.3975 20.7952Z" stroke="#054F31" stroke-width="2.58241" stroke-linecap="round" stroke-linejoin="round"/>
</g>
<defs>
<clipPath id="clip0_1641_68536">
<rect width="25.8241" height="25.8241" fill="white" transform="translate(12.9482 13.2632)"/>
</clipPath>
</defs>
</svg>
