<svg width="53" height="52" viewBox="0 0 53 52" fill="none" xmlns="http://www.w3.org/2000/svg">
<rect x="3.69091" y="3.57909" width="45.1922" height="45.1922" rx="22.5961" fill="#F9FAFB"/>
<rect x="3.69091" y="3.57909" width="45.1922" height="45.1922" rx="22.5961" stroke="#EAECF0" stroke-width="6.45603"/>
<g clip-path="url(#clip0_1641_68541)">
<path d="M31.6663 35.8593V33.7073C31.6663 32.5658 31.2128 31.4711 30.4057 30.6639C29.5985 29.8567 28.5038 29.4033 27.3623 29.4033H18.7542C17.6127 29.4033 16.518 29.8567 15.7108 30.6639C14.9037 31.4711 14.4502 32.5658 14.4502 33.7073V35.8593M38.1223 35.8593V33.7073C38.1216 32.7537 37.8042 31.8273 37.2199 31.0736C36.6357 30.3199 35.8176 29.7816 34.8943 29.5432M30.5903 16.6311C31.5161 16.8681 32.3367 17.4066 32.9227 18.1615C33.5087 18.9164 33.8267 19.8449 33.8267 20.8006C33.8267 21.7563 33.5087 22.6848 32.9227 23.4397C32.3367 24.1947 31.5161 24.7331 30.5903 24.9701M27.3623 20.7952C27.3623 23.1723 25.4353 25.0993 23.0582 25.0993C20.6812 25.0993 18.7542 23.1723 18.7542 20.7952C18.7542 18.4182 20.6812 16.4912 23.0582 16.4912C25.4353 16.4912 27.3623 18.4182 27.3623 20.7952Z" stroke="#054F31" stroke-width="2.58241" stroke-linecap="round" stroke-linejoin="round"/>
</g>
<defs>
<clipPath id="clip0_1641_68541">
<rect width="25.8241" height="25.8241" fill="white" transform="translate(13.375 13.2632)"/>
</clipPath>
</defs>
</svg>
