<svg width="53" height="52" viewBox="0 0 53 52" fill="none" xmlns="http://www.w3.org/2000/svg">
<rect x="3.73778" y="3.57909" width="45.1922" height="45.1922" rx="22.5961" fill="#F9FAFB"/>
<rect x="3.73778" y="3.57909" width="45.1922" height="45.1922" rx="22.5961" stroke="#EAECF0" stroke-width="6.45603"/>
<g clip-path="url(#clip0_1641_68532)">
<path d="M30.6371 35.8593V33.7073C30.6371 32.5658 30.1837 31.4711 29.3765 30.6639C28.5694 29.8567 27.4746 29.4033 26.3331 29.4033H18.8011C17.6596 29.4033 16.5648 29.8567 15.7577 30.6639C14.9505 31.4711 14.4971 32.5658 14.4971 33.7073V35.8593M34.9412 21.8712V28.3273M38.1692 25.0993H31.7132M26.8711 20.7952C26.8711 23.1723 24.9442 25.0993 22.5671 25.0993C20.1901 25.0993 18.2631 23.1723 18.2631 20.7952C18.2631 18.4182 20.1901 16.4912 22.5671 16.4912C24.9442 16.4912 26.8711 18.4182 26.8711 20.7952Z" stroke="#054F31" stroke-width="2.58241" stroke-linecap="round" stroke-linejoin="round"/>
</g>
<defs>
<clipPath id="clip0_1641_68532">
<rect width="25.8241" height="25.8241" fill="white" transform="translate(13.4219 13.2632)"/>
</clipPath>
</defs>
</svg>
