<svg width="26" height="25" viewBox="0 0 26 25" fill="none" xmlns="http://www.w3.org/2000/svg">
<path d="M21.4108 6.36121H19.1838C19.2962 6.04452 19.3677 5.69718 19.3677 5.33963C19.3677 3.64381 17.9988 2.2749 16.3029 2.2749C15.2303 2.2749 14.3007 2.82655 13.749 3.65403L13.2382 4.33849L12.7274 3.64381C12.1758 2.82655 11.2461 2.2749 10.1735 2.2749C8.47767 2.2749 7.10876 3.64381 7.10876 5.33963C7.10876 5.69718 7.18027 6.04452 7.29265 6.36121H5.06561C3.93166 6.36121 3.03268 7.27041 3.03268 8.40436L3.02246 19.6417C3.02246 20.7756 3.93166 21.6848 5.06561 21.6848H21.4108C22.5448 21.6848 23.454 20.7756 23.454 19.6417V8.40436C23.454 7.27041 22.5448 6.36121 21.4108 6.36121ZM16.3029 4.31805C16.8648 4.31805 17.3245 4.77776 17.3245 5.33963C17.3245 5.9015 16.8648 6.36121 16.3029 6.36121C15.7411 6.36121 15.2814 5.9015 15.2814 5.33963C15.2814 4.77776 15.7411 4.31805 16.3029 4.31805ZM10.1735 4.31805C10.7354 4.31805 11.1951 4.77776 11.1951 5.33963C11.1951 5.9015 10.7354 6.36121 10.1735 6.36121C9.61162 6.36121 9.15192 5.9015 9.15192 5.33963C9.15192 4.77776 9.61162 4.31805 10.1735 4.31805ZM21.4108 19.6417H5.06561V17.5985H21.4108V19.6417ZM21.4108 14.5338H5.06561V8.40436H10.2552L8.13034 11.2954L9.78529 12.4907L12.2166 9.18075L13.2382 7.79141L14.2598 9.18075L16.6911 12.4907L18.3461 11.2954L16.2212 8.40436H21.4108V14.5338Z" fill="#054F31"/>
</svg>
