<svg width="45" height="45" viewBox="0 0 45 45" fill="none" xmlns="http://www.w3.org/2000/svg">
<rect x="2.59788" y="2.57005" width="39.8415" height="39.8415" rx="19.9207" fill="#F9FAFB"/>
<rect x="2.59788" y="2.57005" width="39.8415" height="39.8415" rx="19.9207" stroke="#EAECF0" stroke-width="5.10788"/>
<path d="M14.3721 28.9403H12.9239C12.8522 28.9403 12.7844 28.9079 12.7385 28.8526C12.6932 28.7968 12.6752 28.724 12.6892 28.6538C12.7585 28.3119 12.9877 27.4269 13.6196 26.5977C14.3915 25.5846 15.5053 25.0244 16.8507 24.9691V24.1613C16.8507 24.0761 16.8966 23.9969 16.9703 23.954C17.0441 23.9112 17.1353 23.9112 17.2095 23.954L20.2464 25.7071C20.3206 25.75 20.366 25.8287 20.366 25.9144C20.366 25.9997 20.3206 26.0789 20.2464 26.1218L17.2095 27.8754C17.1358 27.9182 17.0446 27.9182 16.9703 27.8754C16.8961 27.8325 16.8507 27.7538 16.8507 27.6681V26.8603C15.3637 26.9724 14.8046 28.0902 14.6013 28.7699C14.5714 28.871 14.4782 28.9403 14.3721 28.9403ZM13.2279 28.4619H14.1986C14.4598 27.7219 15.1958 26.3764 17.0894 26.3729H17.0899C17.1532 26.3729 17.214 26.3978 17.2589 26.4427C17.3037 26.4875 17.3291 26.5483 17.3291 26.6121V27.254L19.6484 25.9149L17.3291 24.5759V25.2038C17.3291 25.2676 17.3037 25.3284 17.2589 25.3733C17.214 25.4181 17.1532 25.443 17.0899 25.443C17.0845 25.443 17.0785 25.443 17.0725 25.443C14.3561 25.443 13.4766 27.5729 13.2279 28.4619Z" fill="#054F31"/>
<path d="M14.5714 26.2201C14.535 26.2201 14.4981 26.2116 14.4643 26.1947C12.899 25.4083 11.9268 23.8331 11.9268 22.0835C11.9268 19.5475 13.9898 17.4844 16.5258 17.4844C19.0618 17.4844 21.1249 19.5475 21.1249 22.0835C21.1249 23.4569 20.518 24.7475 19.459 25.6251C19.3818 25.6889 19.2731 25.6978 19.1869 25.648L17.3301 24.5761V25.204C17.3301 25.2678 17.3047 25.3286 17.2599 25.3734C17.215 25.4183 17.1542 25.4432 17.0909 25.4432C17.085 25.4432 17.0795 25.4432 17.074 25.4432C16.1516 25.4432 15.3583 25.6884 14.7164 26.1723C14.6731 26.2036 14.6222 26.2201 14.5714 26.2201ZM16.5253 17.9628C14.2535 17.9628 12.4047 19.8111 12.4047 22.0835C12.4047 23.6034 13.2234 24.9763 14.551 25.7003C15.2003 25.2498 15.9722 25.0042 16.8508 24.9693V24.162C16.8508 24.0768 16.8966 23.9975 16.9704 23.9547C17.0441 23.9118 17.1353 23.9118 17.2095 23.9547L19.2781 25.1492C20.1492 24.3668 20.6455 23.259 20.6455 22.0835C20.646 19.8111 18.7972 17.9628 16.5253 17.9628Z" fill="#054F31"/>
<path d="M14.5721 26.2198C14.5357 26.2198 14.4988 26.2113 14.4649 26.1944C13.85 25.8854 13.3028 25.4335 12.8817 24.8873C12.8155 24.8011 12.8155 24.6815 12.8817 24.5953C13.7603 23.4546 15.0888 22.8008 16.5265 22.8008C17.9642 22.8008 19.2928 23.4551 20.1713 24.5953C20.2376 24.6815 20.2376 24.8011 20.1713 24.8873C19.9625 25.1584 19.7228 25.4065 19.4597 25.6248C19.3829 25.6886 19.2743 25.6976 19.1876 25.6477L17.3308 24.5758V25.2037C17.3308 25.2675 17.3054 25.3283 17.2606 25.3732C17.2157 25.418 17.1549 25.4429 17.0916 25.4429C17.0866 25.4434 17.0802 25.4429 17.0747 25.4429C16.1518 25.4429 15.3589 25.6881 14.7166 26.172C14.6737 26.2039 14.6229 26.2198 14.5721 26.2198ZM13.3786 24.7413C13.707 25.129 14.1076 25.4569 14.5521 25.7001C15.2015 25.2491 15.9734 25.0039 16.8519 24.9685V24.1612C16.8519 24.076 16.8978 23.9968 16.9715 23.9539C17.0453 23.9111 17.1365 23.9111 17.2107 23.9539L19.2793 25.1484C19.4198 25.0218 19.5524 24.8858 19.6745 24.7413C18.8886 23.8094 17.7519 23.2792 16.5265 23.2792C15.3011 23.2792 14.1644 23.8099 13.3786 24.7413Z" fill="#054F31"/>
<path d="M16.5255 23.2795C15.3748 23.2795 14.4385 22.3436 14.4385 21.193C14.4385 20.0423 15.3748 19.1064 16.5255 19.1064C17.6761 19.1064 18.612 20.0423 18.612 21.193C18.612 22.3436 17.6761 23.2795 16.5255 23.2795ZM16.5255 19.5843C15.6385 19.5843 14.9174 20.3059 14.9174 21.1925C14.9174 22.079 15.639 22.8006 16.5255 22.8006C17.4125 22.8006 18.1336 22.079 18.1336 21.1925C18.1336 20.3059 17.4125 19.5843 16.5255 19.5843Z" fill="#054F31"/>
<path d="M28.5376 26.6821C26.0016 26.6821 23.9385 24.619 23.9385 22.083C23.9385 19.547 26.0016 17.4839 28.5376 17.4839C31.0736 17.4839 33.1366 19.547 33.1366 22.083C33.1366 24.619 31.0736 26.6821 28.5376 26.6821ZM28.5376 17.9628C26.2657 17.9628 24.4169 19.8111 24.4169 22.0835C24.4169 24.3559 26.2652 26.2042 28.5376 26.2042C30.8094 26.2042 32.6582 24.3559 32.6582 22.0835C32.6582 19.8111 30.8094 17.9628 28.5376 17.9628Z" fill="#054F31"/>
<path d="M28.5373 26.6823C27.0996 26.6823 25.771 26.028 24.8925 24.8878C24.8262 24.8016 24.8262 24.682 24.8925 24.5958C25.771 23.4551 27.0996 22.8013 28.5373 22.8013C29.9749 22.8013 31.3035 23.4556 32.182 24.5958C32.2483 24.682 32.2483 24.8016 32.182 24.8878C31.3035 26.0285 29.9749 26.6823 28.5373 26.6823ZM25.3893 24.7418C26.1752 25.6731 27.3119 26.2039 28.5373 26.2039C29.7627 26.2039 30.8998 25.6731 31.6852 24.7418C30.8993 23.8104 29.7627 23.2797 28.5373 23.2797C27.3119 23.2797 26.1747 23.8104 25.3893 24.7418Z" fill="#054F31"/>
<path d="M28.5372 23.2795C27.3866 23.2795 26.4502 22.3436 26.4502 21.193C26.4502 20.0423 27.3866 19.1064 28.5372 19.1064C29.6878 19.1064 30.6237 20.0428 30.6237 21.193C30.6237 22.3431 29.6878 23.2795 28.5372 23.2795ZM28.5372 19.5843C27.6502 19.5843 26.9286 20.3059 26.9286 21.1925C26.9286 22.079 27.6502 22.8006 28.5372 22.8006C29.4242 22.8006 30.1453 22.079 30.1453 21.1925C30.1453 20.3059 29.4242 19.5843 28.5372 19.5843Z" fill="#054F31"/>
<path d="M22.5311 18.7771C20.5448 18.7771 18.9287 17.161 18.9287 15.1747C18.9287 13.1883 20.5448 11.5723 22.5311 11.5723C24.5175 11.5723 26.1336 13.1883 26.1336 15.1747C26.1336 17.161 24.5175 18.7771 22.5311 18.7771ZM22.5311 12.0507C20.8084 12.0507 19.4071 13.452 19.4071 15.1747C19.4071 16.8974 20.8084 18.2987 22.5311 18.2987C24.2539 18.2987 25.6552 16.8974 25.6552 15.1747C25.6552 13.452 24.2539 12.0507 22.5311 12.0507Z" fill="#054F31"/>
<path d="M23.1819 17.3474H21.8803C21.7482 17.3474 21.6411 17.2402 21.6411 17.1082V16.0647H20.5976C20.4655 16.0647 20.3584 15.9575 20.3584 15.8255V14.5239C20.3584 14.3918 20.4655 14.2847 20.5976 14.2847H21.6411V13.2412C21.6411 13.1091 21.7482 13.002 21.8803 13.002H23.1824C23.3145 13.002 23.4216 13.1091 23.4216 13.2412V14.2847H24.4651C24.5972 14.2847 24.7043 14.3918 24.7043 14.5239V15.826C24.7043 15.958 24.5972 16.0652 24.4651 16.0652H23.4216V17.1087C23.4211 17.2402 23.314 17.3474 23.1819 17.3474ZM22.1195 16.869H22.9432V15.8255C22.9432 15.6934 23.0504 15.5863 23.1824 15.5863H24.2259V14.763H23.1824C23.0504 14.763 22.9432 14.6559 22.9432 14.5239V13.4803H22.1195V14.5239C22.1195 14.6559 22.0124 14.763 21.8803 14.763H20.8368V15.5868H21.8803C22.0124 15.5868 22.1195 15.6939 22.1195 15.826V16.869Z" fill="#054F31"/>
<path d="M22.5311 33.4827C20.5448 33.4827 18.9287 31.8666 18.9287 29.8803C18.9287 27.8939 20.5448 26.2778 22.5311 26.2778C24.5175 26.2778 26.1336 27.8939 26.1336 29.8803C26.1336 31.8666 24.5175 33.4827 22.5311 33.4827ZM22.5311 26.7562C20.8084 26.7562 19.4071 28.1575 19.4071 29.8803C19.4071 31.603 20.8084 33.0043 22.5311 33.0043C24.2539 33.0043 25.6552 31.603 25.6552 29.8803C25.6552 28.1575 24.2539 26.7562 22.5311 26.7562Z" fill="#054F31"/>
<path d="M23.1819 32.053H21.8803C21.7482 32.053 21.6411 31.9458 21.6411 31.8138V30.7703H20.5976C20.4655 30.7703 20.3584 30.6631 20.3584 30.5311V29.2289C20.3584 29.0969 20.4655 28.9897 20.5976 28.9897H21.6411V27.9462C21.6411 27.8142 21.7482 27.707 21.8803 27.707H23.1824C23.3145 27.707 23.4216 27.8142 23.4216 27.9462V28.9897H24.4651C24.5972 28.9897 24.7043 29.0969 24.7043 29.2289V30.5311C24.7043 30.6631 24.5972 30.7703 24.4651 30.7703H23.4216V31.8138C23.4211 31.9458 23.314 32.053 23.1819 32.053ZM22.1195 31.5746H22.9432V30.5311C22.9432 30.399 23.0504 30.2919 23.1824 30.2919H24.2259V29.4681H23.1824C23.0504 29.4681 22.9432 29.361 22.9432 29.2289V28.1854H22.1195V29.2289C22.1195 29.361 22.0124 29.4681 21.8803 29.4681H20.8368V30.2919H21.8803C22.0124 30.2919 22.1195 30.399 22.1195 30.5311V31.5746Z" fill="#054F31"/>
</svg>
