<svg width="20" height="20" viewBox="0 0 20 20" fill="none" xmlns="http://www.w3.org/2000/svg">
<path d="M16.667 9.99984V18.3332H3.33366V9.99984M10.0003 18.3332V5.83317M10.0003 5.83317H6.25033C5.69779 5.83317 5.16789 5.61368 4.77719 5.22298C4.38649 4.83228 4.16699 4.30237 4.16699 3.74984C4.16699 3.1973 4.38649 2.6674 4.77719 2.2767C5.16789 1.886 5.69779 1.6665 6.25033 1.6665C9.16699 1.6665 10.0003 5.83317 10.0003 5.83317ZM10.0003 5.83317H13.7503C14.3029 5.83317 14.8328 5.61368 15.2235 5.22298C15.6142 4.83228 15.8337 4.30237 15.8337 3.74984C15.8337 3.1973 15.6142 2.6674 15.2235 2.2767C14.8328 1.886 14.3029 1.6665 13.7503 1.6665C10.8337 1.6665 10.0003 5.83317 10.0003 5.83317ZM1.66699 5.83317H18.3337V9.99984H1.66699V5.83317Z" stroke="#181D27" stroke-width="2" stroke-linecap="round" stroke-linejoin="round"/>
</svg>
