<svg width="36" height="35" viewBox="0 0 36 35" fill="none" xmlns="http://www.w3.org/2000/svg">
<path d="M18.0714 33.5299C26.7435 33.5299 33.7736 26.4998 33.7736 17.8277C33.7736 9.15561 26.7435 2.12549 18.0714 2.12549C9.39926 2.12549 2.36914 9.15561 2.36914 17.8277C2.36914 26.4998 9.39926 33.5299 18.0714 33.5299Z" fill="url(#paint0_linear_1595_178158)"/>
<path d="M18.0718 31.3887C15.3897 31.3887 12.7678 30.5933 10.5377 29.1032C8.30758 27.6131 6.56942 25.4952 5.54302 23.0172C4.51662 20.5393 4.24806 17.8126 4.77132 15.182C5.29458 12.5514 6.58614 10.1351 8.48269 8.23854C10.3792 6.342 12.7956 5.05044 15.4262 4.52718C18.0567 4.00392 20.7834 4.27248 23.2614 5.29888C25.7393 6.32528 27.8573 8.06344 29.3474 10.2935C30.8375 12.5236 31.6328 15.1455 31.6328 17.8276C31.6336 19.6087 31.2834 21.3725 30.6022 23.0182C29.921 24.6639 28.9221 26.1591 27.6627 27.4186C26.4033 28.678 24.908 29.6768 23.2623 30.3581C21.6167 31.0393 19.8529 31.3895 18.0718 31.3887Z" fill="url(#paint1_linear_1595_178158)"/>
<path d="M18.0717 30.6746C25.1669 30.6746 30.9188 24.9228 30.9188 17.8276C30.9188 10.7323 25.1669 4.98047 18.0717 4.98047C10.9764 4.98047 5.22461 10.7323 5.22461 17.8276C5.22461 24.9228 10.9764 30.6746 18.0717 30.6746Z" fill="url(#paint2_linear_1595_178158)"/>
<path d="M18.0717 30.6746C25.1669 30.6746 30.9188 24.9228 30.9188 17.8276C30.9188 10.7323 25.1669 4.98047 18.0717 4.98047C10.9764 4.98047 5.22461 10.7323 5.22461 17.8276C5.22461 24.9228 10.9764 30.6746 18.0717 30.6746Z" fill="url(#paint3_linear_1595_178158)"/>
<path fill-rule="evenodd" clip-rule="evenodd" d="M19.7591 12.3008L18.6025 12.9997C18.7151 13.055 18.8443 13.1424 19.0028 13.2648L19.7591 13.8488V12.3008Z" fill="#F9FAFB"/>
<path fill-rule="evenodd" clip-rule="evenodd" d="M19.7588 12.3008L21.1723 13.3805V15.1611C21.0584 14.8886 20.8304 14.677 20.5772 14.4813L19.7588 13.8488V13.3112V12.3008ZM20.1022 13.072L20.3592 13.2543V13.5878L20.1022 13.4053V13.072ZM20.5668 13.3634L20.8238 13.5458V13.8792L20.5668 13.6967V13.3634ZM20.1022 13.6517L20.3592 13.834V14.1675L20.1022 13.9851V13.6517Z" fill="#F9FAFB"/>
<path fill-rule="evenodd" clip-rule="evenodd" d="M15.7639 11.3188L14.2158 12.515V16.3198L15.7639 14.9697V11.3188ZM14.8789 15.4375V15.0681L14.5975 15.2701V15.6396L14.8789 15.4375ZM15.3877 14.1014L15.1064 14.3033V14.6727L15.3877 14.4708V14.1014ZM14.8789 14.4242L14.5975 14.6261V14.9956L14.8789 14.7936V14.4242ZM15.3877 13.4699L15.1064 13.6718V14.0413L15.3877 13.8393V13.4699ZM14.8789 13.7927L14.5975 13.9947V14.3641L14.8789 14.1621V13.7927ZM15.3877 12.8154L15.1064 13.0173V13.3868L15.3877 13.1848V12.8154ZM14.8789 13.1382L14.5975 13.3402V13.7097L14.8789 13.5076V13.1382ZM15.3877 12.1731L15.1064 12.3751V12.7445L15.3877 12.5425V12.1731ZM14.8789 12.496L14.5975 12.6979V13.0673L14.8789 12.8653V12.496Z" fill="#F9FAFB"/>
<path fill-rule="evenodd" clip-rule="evenodd" d="M15.7637 11.3188L17.3117 12.515V13.6196L15.7637 14.9697V11.3188ZM16.1397 12.8154L16.4212 13.3868L16.1397 13.1848V12.8154ZM16.6486 13.1382L16.9301 13.3403V13.7097L16.6486 13.5076V13.1382ZM16.6486 12.496L16.9301 12.6979V13.0674L16.6486 12.8654V12.496ZM16.1397 12.1731L16.4212 12.3751V12.7445L16.1397 12.5425V12.1731ZM16.1397 13.4699L16.4212 13.6718V14.0413L16.1397 13.8393V13.4699Z" fill="#F9FAFB"/>
<path d="M13.2835 19.7429C13.437 20.5267 14.4572 20.8163 15.8586 20.602C16.008 20.5792 16.1617 20.5506 16.3192 20.5163C16.9397 20.381 17.6183 20.1568 18.319 19.8427C19.2449 19.4277 20.082 18.9131 20.7611 18.3685C20.8667 18.2839 20.9685 18.1984 21.0662 18.1125C22.0685 17.2319 22.6418 16.303 22.5059 15.609C22.4295 15.219 22.1385 14.9513 21.6927 14.8072C21.5737 14.7825 21.448 14.7638 21.3162 14.751C21.7379 14.8831 22.0133 15.1324 22.0848 15.498C22.2069 16.1216 21.7102 16.9502 20.8321 17.7438C20.769 17.8007 20.704 17.8576 20.6371 17.9141C19.9813 18.4683 19.1448 18.9967 18.2107 19.4154C17.4093 19.7746 16.6392 20.0069 15.9633 20.1135C15.8469 20.1318 15.7335 20.1464 15.6231 20.1573C14.4882 20.2694 13.6816 19.989 13.5512 19.323C13.4784 18.9512 13.6257 18.5064 13.9426 18.0397C13.4401 18.6577 13.1885 19.2578 13.2835 19.7429Z" fill="#FCFCFD"/>
<path d="M18.3195 19.8426C17.6187 20.1567 16.9402 20.3809 16.3196 20.5162C16.1622 20.5505 16.0084 20.5791 15.859 20.6019C14.4577 20.8162 13.4374 20.5266 13.2839 19.7428C13.1889 19.2577 13.4406 18.6576 13.943 18.0395C13.3643 18.7334 13.0702 19.4254 13.1753 19.9993C13.308 20.723 14.049 21.1129 15.1216 21.1477C15.9735 22.4423 17.316 23.7978 17.8362 24.3043C17.9515 24.4168 18.1529 24.4168 18.2679 24.3043C19.0565 23.5372 21.7299 20.8228 21.7299 19.3224C21.7299 19.0317 21.6848 18.7501 21.6005 18.4826C22.5745 17.5872 23.1217 16.633 22.9839 15.8816C22.8804 15.3167 22.4062 14.9553 21.6932 14.8071C22.139 14.9512 22.43 15.2189 22.5064 15.6089C22.6423 16.3029 22.0691 17.2318 21.0667 18.1124C20.969 18.1983 20.8672 18.2838 20.7615 18.3684C20.0824 18.913 19.2454 19.4276 18.3195 19.8426ZM16.76 20.9744C16.817 20.9619 16.8744 20.9485 16.9321 20.9345C17.4419 20.811 17.98 20.6343 18.5309 20.403C19.3526 20.0581 20.1084 19.6315 20.7557 19.1667C20.8533 19.0966 20.9485 19.0257 21.041 18.9539C20.9787 20.3328 19.7806 21.4328 18.3117 21.4328C17.7353 21.4328 17.2008 21.2635 16.76 20.9744Z" fill="#D0D5DD"/>
<path d="M20.7559 19.1668C20.545 20.3315 19.463 21.2184 18.1598 21.2184C17.7165 21.2184 17.2988 21.1158 16.9323 20.9346C16.7115 20.988 16.496 21.0314 16.2871 21.0649C16.761 21.456 17.4133 21.6939 18.1531 21.6939C19.7472 21.6939 21.1436 20.5891 21.2721 19.2265C21.2866 19.0718 21.2843 18.9207 21.2663 18.7739C21.105 18.9072 20.9346 19.0384 20.7559 19.1668Z" fill="#F9FAFB"/>
<path d="M18.3577 22.8421C17.7794 23.0345 17.2349 23.0564 16.7764 22.9362C17.2148 23.4139 17.6059 23.8043 17.8361 24.0284C17.9514 24.1409 18.1528 24.1409 18.2678 24.0284C18.5663 23.7381 19.1348 23.1688 19.7261 22.492C19.5737 22.4699 19.4289 22.4334 19.2932 22.3833C19.0031 22.5754 18.6883 22.7322 18.3577 22.8421Z" fill="#F2F4F7"/>
<path d="M13.0703 17.6404L14.4185 17.6445L14.4164 17.6467L14.4065 17.6583L14.3967 17.6702L14.3867 17.6819V17.6821L14.3771 17.6938V17.6939L14.3676 17.706L14.3581 17.718L14.3489 17.7304L14.3399 17.7426L14.3309 17.7548V17.755L14.3221 17.7675L14.3134 17.7799V17.78L14.3049 17.7926V17.7927L14.2964 17.8053L14.288 17.8181L14.28 17.831L14.2721 17.8437V17.8438L14.2641 17.8568L14.2565 17.8698L14.249 17.883L14.2416 17.8962L14.2342 17.9095L14.2271 17.9227V17.9229L14.2204 17.9362L14.2135 17.9495V17.9497L14.2069 17.9632L14.2003 17.9768L14.1942 17.9903L14.1879 18.004V18.0041L14.1818 18.0176V18.0178L14.1762 18.0314V18.0316L14.1704 18.0452L14.1648 18.0592L14.1596 18.073L14.1543 18.087L14.1494 18.1012L14.1447 18.115V18.1151L14.1399 18.1291V18.1293L14.1354 18.1432L14.1312 18.1574L14.127 18.1717L14.123 18.1858L14.1193 18.2001L14.1158 18.2144L14.1124 18.2286V18.2287L14.1092 18.243L14.1063 18.2573L14.1032 18.2718L14.1007 18.2861V18.2862L14.0981 18.3005L14.0957 18.315L14.0938 18.3294L14.0918 18.3437L14.0902 18.3584L14.0888 18.3727L14.0873 18.3873L14.0861 18.4019L14.0852 18.4162L14.0844 18.4308L14.0839 18.4455L14.0838 18.4598L14.0836 18.4744C14.0836 18.4908 14.0839 18.5096 14.0846 18.5256C14.1114 19.1022 14.7037 19.425 15.5284 19.3294C15.5156 19.2915 15.464 19.1466 15.4526 19.1078C14.9501 17.3855 16.3229 15.5686 18.2242 15.5077C18.5857 15.4961 18.9316 15.5726 19.2491 15.691L19.2648 15.697L19.2762 15.7013L19.2852 15.7049C19.7246 15.8778 20.1597 16.2135 20.4782 16.5837C20.5613 16.6899 20.6524 16.8001 20.7221 16.9096C20.9029 16.7048 21.0982 16.4685 21.1915 16.2054C21.2288 16.1002 21.2492 15.9869 21.2492 15.8688C21.2492 15.3939 20.9389 15.0823 20.5777 14.8031C20.0529 14.3976 19.5279 13.9917 19.0031 13.5866C18.3069 13.0493 18.1769 13.1865 17.5353 13.7462L13.0703 17.6404Z" fill="#EAECF0"/>
<path fill-rule="evenodd" clip-rule="evenodd" d="M17.1572 16.9331H18.1206V17.8383H17.1572V16.9331Z" fill="#FCFCFD"/>
<path fill-rule="evenodd" clip-rule="evenodd" d="M18.3535 16.9331H19.3169V17.8383H18.3535V16.9331Z" fill="#FCFCFD"/>
<path fill-rule="evenodd" clip-rule="evenodd" d="M17.1572 18.1289H18.1206V18.6765L18.0749 18.697C17.7631 18.8368 17.4559 18.9574 17.1572 19.0588V18.1289Z" fill="#FCFCFD"/>
<path fill-rule="evenodd" clip-rule="evenodd" d="M18.3535 18.1289H19.175C18.9132 18.2832 18.6385 18.4303 18.3535 18.5675V18.1289Z" fill="#FCFCFD"/>
<path d="M15.4528 19.1082C14.9503 17.3859 16.3231 15.5689 18.2244 15.508C18.5859 15.4965 18.9318 15.5729 19.2493 15.6914L19.265 15.6973L19.2764 15.7017L19.2854 15.7052C19.7248 15.8781 20.1599 16.2138 20.4784 16.584C20.5615 16.6902 20.6526 16.8005 20.7223 16.9099C20.795 16.8276 20.87 16.7402 20.9398 16.6481C20.4922 15.66 19.4741 14.9877 18.243 14.9977C16.505 15.0118 15.0007 16.3807 14.8833 18.0552C14.851 18.5155 14.9268 18.951 15.0899 19.3404C15.2265 19.351 15.3734 19.3478 15.5286 19.3298C15.5158 19.2918 15.4642 19.1469 15.4528 19.1082Z" fill="#F2F4F7"/>
<path d="M17.2607 14.3315C18.5519 13.917 19.0952 14.2763 20.2241 14.8036C19.8186 14.4743 19.335 14.1581 18.9057 13.8372C18.3382 13.4138 18.1817 13.5644 17.5895 14.0576L17.2607 14.3315Z" fill="#FCFCFD"/>
<defs>
<linearGradient id="paint0_linear_1595_178158" x1="5.50952" y1="3.49675" x2="30.9466" y2="32.3882" gradientUnits="userSpaceOnUse">
<stop stop-color="#FFD980"/>
<stop offset="1" stop-color="#FFCA4F"/>
</linearGradient>
<linearGradient id="paint1_linear_1595_178158" x1="8.30774" y1="8.44993" x2="30.2761" y2="29.6046" gradientUnits="userSpaceOnUse">
<stop stop-color="#F7AE30"/>
<stop offset="1" stop-color="#FFCA4F"/>
</linearGradient>
<linearGradient id="paint2_linear_1595_178158" x1="4.71073" y1="5.23741" x2="32.2035" y2="31.4455" gradientUnits="userSpaceOnUse">
<stop stop-color="#FFCA4F"/>
<stop offset="1" stop-color="#F7AE30"/>
</linearGradient>
<linearGradient id="paint3_linear_1595_178158" x1="13.7037" y1="13.7165" x2="30.4049" y2="29.6469" gradientUnits="userSpaceOnUse">
<stop stop-color="#FFCA4F" stop-opacity="0"/>
<stop offset="1" stop-color="#F4901F"/>
</linearGradient>
</defs>
</svg>
