<svg width="20" height="20" viewBox="0 0 20 20" fill="none" xmlns="http://www.w3.org/2000/svg">
<path d="M14.1687 10.8335C14.6289 10.8335 15.002 11.2066 15.002 11.6668C15.002 12.0942 14.6803 12.4464 14.2658 12.4946L14.1687 12.5002H4.5145L7.25792 15.2442C7.55832 15.5446 7.58143 16.0173 7.32724 16.3442L7.25792 16.4228C6.95751 16.7232 6.48482 16.7463 6.15791 16.4921L6.07941 16.4228L1.91274 12.2561C1.41059 11.7539 1.72894 10.9108 2.4073 10.8385L2.502 10.8335H14.1687ZM13.8444 3.50825L13.9229 3.57757L18.0896 7.74424C18.5917 8.24639 18.2734 9.08948 17.595 9.16184L17.5003 9.16683H5.83366C5.37342 9.16683 5.00033 8.79373 5.00033 8.3335C5.00033 7.90613 5.32203 7.55391 5.73647 7.50577L5.83366 7.50016H15.4878L12.7444 4.75608C12.444 4.45568 12.4209 3.98299 12.6751 3.65608L12.7444 3.57757C13.0448 3.27717 13.5175 3.25406 13.8444 3.50825Z" fill="#101828"/>
</svg>
